# xmcd
#
# Track frame offsets:
#	160
#	12440
#	25075
#	42877
#	54840
#	67127
#	81930
#	91852
#	103517
#	112467
#	128737
#	150712
#	162112
#	174060
#	191327
#
# Disc length: 2722 seconds
#
# Revision: 2
# Processed by: cddbd v1.5.1PL2 Copyright (c) Steve Scherf et al.
# Submitted via: EasyCDDAExtractor 9.1.3.1
#
DISCID=b60aa00f
DTITLE=The New Coon Creek Girls - The L&N Don't Stop Here Anymore
DYEAR=1994
DGENRE=Bluegrass
TTITLE0=Fireball Mail
TTITLE1=I Should Be With You
TTITLE2=The L&N Don't Stop Here Anymore
TTITLE3=Little Willie
TTITLE4=Kentucky Blues
TTITLE5=Stop, Look And Listen
TTITLE6=Hammer And Nails
TTITLE7='Possum Kingdom
TTITLE8=I Ain't Never
TTITLE9=Mississippi Delta Dawn
TTITLE10=I Pressed Through The Crowd
TTITLE11=Brand New Home
TTITLE12=Stormy Night
TTITLE13=Tennessee Blues
TTITLE14=Burning Love
EXTD=
EXTT0=
EXTT1=
EXTT2=
EXTT3=
EXTT4=
EXTT5=
EXTT6=
EXTT7=
EXTT8=
EXTT9=
EXTT10=
EXTT11=
EXTT12=
EXTT13=
EXTT14=
PLAYORDER=
